<?xml version="1.0" encoding="UTF-8"?>
<svg xmlns="http://www.w3.org/2000/svg" version="1.1" viewBox="0 0 1330 289.3">
  <defs>
    <style>
      .cls-1 {
        fill: #ea207e;
      }
    </style>
  </defs>
  <!-- Generator: Adobe Illustrator 28.7.8, SVG Export Plug-In . SVG Version: 1.2.0 Build 200)  -->
  <g>
    <g id="Layer_1">
      <g>
        <path class="cls-1" d="M418.6,41.2c10.2,0,17.8,6.4,17.8,16v1.8c0,9.7-7.6,16-17.8,16-10.2,0-18.1-6.4-18.1-16v-1.8c0-9.7,7.9-16,18.1-16Z"/>
        <path class="cls-1" d="M1249.6,149.4c0-35.6-22.9-61.9-59.3-61.9-36.4,0-62.9,27.5-62.9,64.1v9.4c0,35.9,26,64.4,64.1,64.4,25.2,0,45.3-11.2,58-34.9l-22.7-12.7c-9.2,15.8-20.1,22.7-35.6,22.7-21.4,0-35.9-13.2-37.2-37.4h95.5v-13.7ZM1155.2,141.5c3.3-19.1,15.3-30,35.1-30,21.9,0,31.1,15.5,31.6,30h-66.7Z"/>
        <path class="cls-1" d="M864.6,90.6v16c-9.2-11.5-24.2-19.1-42-19.1-34.1,0-61.3,27-61.3,64.7v8.7c0,37.7,27.2,64.7,61.3,64.7,17.8,0,32.8-7.6,42-19.1v16h28V90.6h-28ZM864.6,159.6c0,24.9-14.5,41-37.4,41-22.9,0-37.4-16-37.4-41v-6.1c0-24.9,14.5-41,37.4-41,22.9,0,37.4,16,37.4,41v6.1Z"/>
        <path class="cls-1" d="M325,87.6c-17.8,0-32.8,7.6-42,19.1v-62.4h-28v115.6c0,41.2,28.8,65.7,65.2,65.7,38.4,0,66.2-27.2,66.2-64.7v-8.4c0-37.9-27.2-64.9-61.3-64.9ZM358.4,160.4c0,23.9-14.8,40.2-37.7,40.2-22.9,0-37.7-15.8-37.7-40.2v-6.9c0-24.9,14.8-41,37.7-41,22.9,0,37.7,16,37.7,41v6.9Z"/>
        <polygon class="cls-1" points="1037.7 147.1 1090.9 90.6 1127.3 90.6 1074.4 144.1 1132.4 222.5 1098 222.5 1055.3 163.2 1037.7 180.7 1037.7 222.5 1009.7 222.5 1009.7 44.3 1037.7 44.3 1037.7 147.1"/>
        <path class="cls-1" d="M977.2,87.6c7.6,0,14.5,1.8,20.1,5.3l-6.6,25.5c-5.1-2.3-10.2-3.8-16.3-3.8-17.8,0-31.3,13.7-31.3,36.7v71.3h-28V90.6h28v18.3c7.6-15.5,20.4-21.4,34.1-21.4Z"/>
        <path class="cls-1" d="M697.8,87.6c30,0,48.4,20.4,48.4,55.5v79.4h-28v-78.7c0-19.3-8.7-31.3-24.9-31.3-18.1,0-28.5,12.7-28.5,33.1v76.9h-28v-76.9c0-20.4-7.6-33.1-25.2-33.1-16.8,0-28.3,12.7-28.3,33.9v76.1h-28V90.6h28v16.5c7.1-10.9,18.8-19.6,36.7-19.6,17.8,0,31.3,9.9,37.4,24.2,6.9-13,19.9-24.2,40.5-24.2Z"/>
        <path class="cls-1" d="M521.7,87.6c7.6,0,14.5,1.8,20.1,5.3l-6.6,25.5c-5.1-2.3-10.2-3.8-16.3-3.8-17.8,0-31.3,13.7-31.3,36.7v71.3h-28V90.6h28v18.3c7.6-15.5,20.4-21.4,34.1-21.4Z"/>
        <rect class="cls-1" x="404.6" y="90.6" width="28" height="131.9"/>
        <path class="cls-1" d="M1306,90.6h24.1v24.9h-24.1v26.5h0v43.7c0,9.7,4.3,12.7,12.2,12.7,2.5,0,4.1-.3,5.9-.8l2.8,23.9c-3.6,1.3-7.6,1.8-12.5,1.8-23.4,0-36.4-13-36.4-39.2v-13.8h0v-54.9h-23.1v-24.9h23.1v-37.7h28v37.7Z"/>
        <path class="cls-1" d="M168,126.6L98,6.7c-5.2-8.9-18-8.9-23.2,0L4.9,126.6c-6.5,11.1-6.5,24.9,0,36.1l70,120c5.2,8.9,18,8.9,23.2,0l70-120c6.5-11.1,6.5-24.9,0-36.1ZM132.2,154.9l-42.9,72.3c-1.3,2.2-4.5,2.2-5.8,0l-42.9-72.3c-3.8-6.3-3.8-14.2,0-20.5l42.9-72.3c1.3-2.2,4.5-2.2,5.8,0l42.9,72.3c3.8,6.3,3.8,14.2,0,20.5Z"/>
      </g>
    </g>
  </g>
</svg>